# xmcd CD database file
#
# Track frame offsets:
#	183
#	13968
#	24988
#	42085
#	60508
#	72380
#	89428
#	101970
#	112370
#	127443
#
# Disc length: 1980 seconds
#
# Revision: 7
# Processed by: cddbd v1.5.2PL0 Copyright (c) Steve Scherf et al.
# Submitted via: CDex 1.79
#
DISCID=9607ba0a
DTITLE=Hank Williams Jr. - Maverick
DYEAR=1992
DGENRE=Country
TTITLE0=Come On Over To The Country
TTITLE1=Lyin' Jukebox
TTITLE2=Wild Weekend
TTITLE3=The Count Song
TTITLE4=I Know What You've Got Up Your Sleeve
TTITLE5=Hotel Whiskey (featuring Clint Black)
TTITLE6=Fax Me A Beer
TTITLE7=Low Down Blues
TTITLE8=A Little Less Talk And A Lot More Action
TTITLE9=Cut Bank, Montana
EXTD=YEAR: 1992
EXTT0=
EXTT1=
EXTT2=
EXTT3=
EXTT4=
EXTT5=
EXTT6=
EXTT7=
EXTT8=
EXTT9=
PLAYORDER=
